<?xml version="1.0" encoding="utf-8"?>
<!-- Generator: Adobe Illustrator 16.0.4, SVG Export Plug-In . SVG Version: 6.00 Build 0)  -->
<!DOCTYPE svg PUBLIC "-//W3C//DTD SVG 1.1//EN" "http://www.w3.org/Graphics/SVG/1.1/DTD/svg11.dtd">
<svg version="1.1" id="Layer_1" xmlns="http://www.w3.org/2000/svg" xmlns:xlink="http://www.w3.org/1999/xlink" x="0px" y="0px"
	 width="45.051px" height="45.037px" viewBox="0 0 45.051 45.037" enable-background="new 0 0 45.051 45.037" xml:space="preserve">
<path fill="#69F9BE" stroke="#16A770" stroke-miterlimit="10" d="M44.5,36.078c0,4.536-3.444,8.422-7.961,8.422h-28.3
	c-4.517,0-7.739-3.886-7.739-8.422V8.82c0-4.536,3.222-8.32,7.739-8.32h28.3c4.517,0,7.961,3.784,7.961,8.32V36.078z"/>
<g>
	<ellipse fill="#16A770" cx="22.484" cy="24.596" rx="7.397" ry="7.239"/>
	<path fill="#16A770" d="M42.579,10.792H28.929V9.289c0-1.991,0-1.782,0-1.782H16.196c0,0,0-0.209,0,1.782v1.503
		c0,0-1.369-0.022-2.53,0c-1.16,0.017-2.47,0.446-2.47,0.446L2.41,14.012c0,0,0.02,1.206,0,2.067c-0.023,0.861,0,20.222,0,20.222
		c0,0.994,0,1.799,0,1.799s40.122-0.002,40.169,0c0.052,0.006,0-0.806,0-1.799v-23.71C42.579,11.596,42.579,10.792,42.579,10.792z
		 M22.487,35.171c-5.974,0-10.812-4.736-10.812-10.575c0-5.839,4.838-10.575,10.812-10.575c5.969,0,10.808,4.735,10.808,10.575
		C33.295,30.435,28.456,35.171,22.487,35.171z"/>
	<path fill="#16A770" d="M10.504,9.873l-6.426,2.13V9.12c0-0.308,0-0.556,0-0.556h6.426c0,0,0,0.248,0,0.556V9.873z"/>
</g>
</svg>
