<?xml version="1.0" encoding="utf-8"?>
<!-- Generator: Adobe Illustrator 16.0.4, SVG Export Plug-In . SVG Version: 6.00 Build 0)  -->
<!DOCTYPE svg PUBLIC "-//W3C//DTD SVG 1.1//EN" "http://www.w3.org/Graphics/SVG/1.1/DTD/svg11.dtd">
<svg version="1.1" id="Layer_1" xmlns="http://www.w3.org/2000/svg" xmlns:xlink="http://www.w3.org/1999/xlink" x="330px" y="330px"
	 ng-attr-width="{{iconWidth}}px" ng-attr-height="{{iconHeight}}px" viewBox="0 0 45.051 45.037" enable-background="new 0 0 45.051 45.037" xml:space="preserve">
<path fill="#60FF00" ng-attr-stroke="{{iconFill}}" stroke-width=3 stroke-miterlimit="10" d="M44.5,36.5c0,4.418-3.582,8-8,8h-28c-4.418,0-8-3.582-8-8v-28
	c0-4.418,3.582-8,8-8h28c4.418,0,8,3.582,8,8V36.5z"/>
<g>
	<rect x="12.5" y="3.5" fill="none" stroke="#333333" stroke-miterlimit="10" width="19" height="31"/>
	<path fill="#333333" stroke="#333333" stroke-miterlimit="10" d="M12.5,4.066v31.248l14,7.02V11.086L12.5,4.066z M24.284,28.522
		c-0.969,0-1.755-0.786-1.755-1.755c0-0.97,0.786-1.756,1.755-1.756c0.97,0,1.756,0.786,1.756,1.756
		C26.04,27.736,25.254,28.522,24.284,28.522z"/>
</g>
</svg>
