<?xml version="1.0" encoding="utf-8"?>
<!-- Generator: Adobe Illustrator 16.0.4, SVG Export Plug-In . SVG Version: 6.00 Build 0)  -->
<!DOCTYPE svg PUBLIC "-//W3C//DTD SVG 1.1//EN" "http://www.w3.org/Graphics/SVG/1.1/DTD/svg11.dtd">
<svg version="1.1" id="Layer_1" xmlns="http://www.w3.org/2000/svg" xmlns:xlink="http://www.w3.org/1999/xlink" x="0px" y="0px"
	 width="45.051px" height="45.037px" viewBox="0 0 45.051 45.037" enable-background="new 0 0 45.051 45.037" xml:space="preserve">
<path fill="#FFFF0D" stroke="#333333" stroke-miterlimit="10" d="M44.5,36.5c0,4.418-3.582,8-8,8h-28c-4.418,0-8-3.582-8-8v-28
	c0-4.418,3.582-8,8-8h28c4.418,0,8,3.582,8,8V36.5z"/>
<g>
	
		<rect x="13.136" y="33.768" transform="matrix(0.9312 -0.3646 0.3646 0.9312 -11.313 10.7419)" fill="#333333" width="19.316" height="3.132"/>
	<path fill="#333333" d="M18.545,29.248c0,0-4.033-2.814-1.644-6.848c0,0,3.436-3.137,2.987-5.228c0,0,0.598,3.286,2.391,4.481
		c0,0,3.733-3.211,2.688-8.066c0,0,4.481,3.885,4.631,7.021c0.149,3.138,0.747,5.825-1.046,6.572
		c-1.792,0.747-2.539,2.067-2.539,2.067s1.643-2.963,0.597-5.801c-1.045-2.839-1.344-2.029-1.344-2.029s0.449,0.834-0.598,2.477
		c-1.045,1.643-3.883,0.448-4.033-0.746c-0.148-1.195-2.09,3.436-0.746,4.63s2.391,2.688,2.391,2.688L18.545,29.248z"/>
	
		<rect x="13.137" y="33.768" transform="matrix(-0.9312 -0.3646 0.3646 -0.9312 31.1358 76.5465)" fill="#333333" width="19.314" height="3.133"/>
	<polyline fill="none" stroke="#333333" stroke-width="2" stroke-miterlimit="10" points="9,40 9,12 36,12 36,40 	"/>
	<line fill="none" stroke="#333333" stroke-width="4" stroke-miterlimit="10" x1="6" y1="8" x2="40" y2="8"/>
</g>
</svg>
