<?xml version="1.0" encoding="utf-8"?>
<!-- Generator: Adobe Illustrator 16.0.4, SVG Export Plug-In . SVG Version: 6.00 Build 0)  -->
<!DOCTYPE svg PUBLIC "-//W3C//DTD SVG 1.1//EN" "http://www.w3.org/Graphics/SVG/1.1/DTD/svg11.dtd">
<svg version="1.1" id="Layer_1" xmlns="http://www.w3.org/2000/svg" xmlns:xlink="http://www.w3.org/1999/xlink" x="0px" y="0px"
	 width="45.051px" height="45.037px" viewBox="0 0 45.051 45.037" enable-background="new 0 0 45.051 45.037" xml:space="preserve">
<g>
	<g>
		<path fill="#38D1F4" stroke="#333333" stroke-miterlimit="10" d="M44.5,36.5c0,4.418-3.582,8-8,8h-28c-4.418,0-8-3.582-8-8v-28
			c0-4.418,3.582-8,8-8h28c4.418,0,8,3.582,8,8V36.5z"/>
	</g>
	<g>
		<rect x="17.5" y="11.5" fill="none" stroke="#333333" stroke-miterlimit="10" width="6" height="3"/>
		<polyline fill="none" stroke="#333333" stroke-width="5" stroke-miterlimit="10" points="20.5,12 20.5,7.66 36.743,7.781 		"/>
		<line fill="none" stroke="#333333" stroke-miterlimit="10" x1="17.5" y1="17" x2="17.5" y2="26"/>
		<line fill="none" stroke="#333333" stroke-miterlimit="10" x1="20.5" y1="17" x2="20.5" y2="23"/>
		<line fill="none" stroke="#333333" stroke-miterlimit="10" x1="23.5" y1="17" x2="23.5" y2="24"/>
		<path fill="none" stroke="#333333" stroke-miterlimit="10" d="M15.901,37.131l4.485-1.193c0,0,2.27-0.493,2.029-2.258
			c0,0-0.02-0.529-0.96-0.35"/>
		<path fill="none" stroke="#333333" stroke-miterlimit="10" d="M15.391,35.208l4.758-1.265c0,0,2.421-0.591,2.101-2.423
			c0,0-0.359-0.696-0.999-0.472"/>
		<path fill="none" stroke="#333333" stroke-miterlimit="10" d="M13.512,31.004l5.172-1.473c0,0,2.236-0.617,2.819,0.715
			c0.155,1.445-2.139,1.848-2.139,1.848l-4.484,1.192"/>
		<path fill="none" stroke="#333333" stroke-miterlimit="10" d="M10.658,31.338l2.03-0.334c0,0,2.806-0.648,2.003-3.158l-7.02,2.037
			c0,0-3.518,1.232-1.982,7.113c0,0,2.127,4.342,8.801,2.566l4.484-1.191c0,0,2.303-0.587,1.918-2.678"/>
	</g>
</g>
</svg>
