<?xml version="1.0" encoding="utf-8"?>
<!-- Generator: Adobe Illustrator 16.0.4, SVG Export Plug-In . SVG Version: 6.00 Build 0)  -->
<!DOCTYPE svg PUBLIC "-//W3C//DTD SVG 1.1//EN" "http://www.w3.org/Graphics/SVG/1.1/DTD/svg11.dtd">
<svg version="1.1" id="Layer_1" xmlns="http://www.w3.org/2000/svg" xmlns:xlink="http://www.w3.org/1999/xlink" x="0px" y="0px"
	 width="45.051px" height="45.037px" viewBox="0 0 45.051 45.037" enable-background="new 0 0 45.051 45.037" xml:space="preserve">
<path fill="#2659FF" stroke="#333333" stroke-miterlimit="10" d="M44.5,36.5c0,4.418-3.582,8-8,8h-28c-4.418,0-8-3.582-8-8v-28
	c0-4.418,3.582-8,8-8h28c4.418,0,8,3.582,8,8V36.5z"/>
<g>
	<path fill="none" stroke="#333333" stroke-miterlimit="10" d="M27,22.5H9.793c-1.324,1-0.947,2-0.947,2H27"/>
	<path fill="none" stroke="#333333" stroke-miterlimit="10" d="M28.697,22.814"/>
	<path fill="none" stroke="#333333" stroke-miterlimit="10" d="M9.457,24.99c0,0,0,11.656,13.711,10.379l-2.27,5.131h13.471l0,0"/>
	<rect x="27.5" y="9.5" fill="none" stroke="#333333" stroke-miterlimit="10" width="8" height="15"/>
	<path fill="none" stroke="#333333" stroke-miterlimit="10" d="M27.562,9.77c0,0-0.33-2.27,0.852-2.27s6.286,0,6.286,0
		s0.804-0.236,0.804,2.269"/>
	<line fill="none" stroke="#333333" stroke-miterlimit="10" x1="34.5" y1="41" x2="34.5" y2="25"/>
	<line fill="none" stroke="#333333" stroke-miterlimit="10" x1="29" y1="12.5" x2="32" y2="12.5"/>
</g>
</svg>
