<?xml version="1.0" encoding="utf-8"?>
<!-- Generator: Adobe Illustrator 16.0.4, SVG Export Plug-In . SVG Version: 6.00 Build 0)  -->
<!DOCTYPE svg PUBLIC "-//W3C//DTD SVG 1.1//EN" "http://www.w3.org/Graphics/SVG/1.1/DTD/svg11.dtd">
<svg version="1.1" id="Layer_1" xmlns="http://www.w3.org/2000/svg" xmlns:xlink="http://www.w3.org/1999/xlink" x="0px" y="0px"
	 ng-attr-width="{{iconWidth}}px" ng-attr-height="{{iconHeight}}px" viewBox="0 0 45.051 45.037" enable-background="new 0 0 45.051 45.037" xml:space="preserve">
<g>
	<path fill="#16A770" ng-attr-stroke="{{iconFill}}" stroke-width=3 stroke-linecap="round" stroke-miterlimit="10" d="M44.5,39.384
		c0,2.826-2.141,5.116-4.783,5.116H5.283c-2.642,0-4.783-2.291-4.783-5.116V5.616C0.5,2.791,2.641,0.5,5.283,0.5h34.435
		c2.642,0,4.783,2.291,4.783,5.116V39.384z"/>
	<g>
		<path fill="#69F9BE" d="M34.454,18.506c-0.026-0.163-0.125-0.321-0.274-0.474c-1.196,1.216-6.014,1.417-11.771,1.417
			c-5.759,0-10.571-0.201-11.773-1.417c-0.147,0.152-0.24,0.311-0.273,0.474H10.35l0.003,0.087c0,0.009-0.003,0.02-0.003,0.03
			c0,0.024,0.006,0.045,0.01,0.067l0.938,19.205h0.001c0.083,1.506,1.808,3.783,11.109,3.783c9.302,0,11.027-2.277,11.108-3.783
			h0.007l0.938-19.205c0.002-0.022,0.009-0.043,0.009-0.067c0-0.01-0.006-0.021-0.006-0.03l0.006-0.087H34.454z"/>
		<path fill="#69F9BE" d="M28.14,8.454V3.92c0-0.821-0.671-1.495-1.495-1.495h-8.974c-0.817,0-1.491,0.674-1.491,1.495v4.586
			c-4.438,0.502-7.474,1.521-7.474,2.702v2.242c0,0.459,0.465,0.897,1.3,1.292c2.189,1.028,6.92,1.741,12.402,1.741
			c5.486,0,10.215-0.713,12.407-1.741c0.83-0.395,1.3-0.833,1.3-1.292v-2.242C36.115,9.985,32.844,8.934,28.14,8.454z M19.048,8.266
			L18.67,8.29V6.412c0-0.822,0.114-1.495,0.25-1.495c0.14,0,0.923,0,1.746,0h2.99c0.819,0,1.606,0,1.743,0
			c0.138,0,0.251,0.673,0.251,1.495V8.26c-1.041-0.055-2.122-0.088-3.241-0.088C21.248,8.172,20.121,8.206,19.048,8.266z"/>
	</g>
	
		<line fill="none" stroke="#16A770" stroke-width="2" stroke-linecap="round" stroke-miterlimit="10" x1="13.469" y1="22.018" x2="14.531" y2="37.982"/>
	
		<line fill="none" stroke="#16A770" stroke-width="2" stroke-linecap="round" stroke-miterlimit="10" x1="31.684" y1="22.03" x2="30.316" y2="37.971"/>
	
		<line fill="none" stroke="#16A770" stroke-width="2" stroke-linecap="round" stroke-miterlimit="10" x1="22" y1="23" x2="22" y2="39"/>
</g>
</svg>
