<?xml version="1.0" encoding="utf-8"?>
<!-- Generator: Adobe Illustrator 16.0.4, SVG Export Plug-In . SVG Version: 6.00 Build 0)  -->
<!DOCTYPE svg PUBLIC "-//W3C//DTD SVG 1.1//EN" "http://www.w3.org/Graphics/SVG/1.1/DTD/svg11.dtd">
<svg version="1.1" id="Layer_1" xmlns="http://www.w3.org/2000/svg" xmlns:xlink="http://www.w3.org/1999/xlink" x="0px" y="0px"
	 width="45.051px" height="45.037px" viewBox="0 0 45.051 45.037" enable-background="new 0 0 45.051 45.037" xml:space="preserve">
<path fill="#B32D98" stroke="#333333" stroke-miterlimit="10" d="M44.5,36.5c0,4.418-3.582,8-8,8h-28c-4.418,0-8-3.582-8-8v-28
	c0-4.418,3.582-8,8-8h28c4.418,0,8,3.582,8,8V36.5z"/>
<g>
	<path fill="none" stroke="#333333" stroke-miterlimit="10" d="M42.5,20.518c0,1.095-0.888,1.982-1.982,1.982H5.482
		c-1.095,0-1.982-0.888-1.982-1.982v-0.035c0-1.095,0.888-1.982,1.982-1.982h35.035c1.095,0,1.982,0.888,1.982,1.982V20.518z"/>
	<path fill="none" stroke="#333333" stroke-miterlimit="10" d="M5.158,22.751c0,0,1.156,8.749,7.986,10.749h19.61
		c0,0,3.745,0.555,7.602-10.571"/>
	<path fill="none" stroke="#333333" stroke-width="2" stroke-miterlimit="10" d="M8,19v-4.318c0,0,0.142-2.869,2.208-2.869
		c0,0,2.328-0.177,2.328,3.211"/>
	<line fill="none" stroke="#333333" stroke-miterlimit="10" x1="11" y1="15.5" x2="14" y2="15.5"/>
	<path fill="none" stroke="#333333" stroke-miterlimit="10" d="M11.058,32.83l2.312,0.915c0,0-0.414,1.505-0.955,1.642
		c0,0,0.434,0.559,0.099,1.187L9.36,36.617c0,0-0.669-1.066,1.079-1.396C10.439,35.222,10.123,32.662,11.058,32.83z"/>
	<path fill="none" stroke="#333333" stroke-miterlimit="10" d="M35.357,32.529l-2.326,1.216c0,0,0.414,1.505,0.956,1.642
		c0,0-0.434,0.559-0.099,1.187l3.152,0.044c0,0,0.668-1.066-1.08-1.396C35.961,35.222,36.293,32.361,35.357,32.529z"/>
</g>
</svg>
